# FreeCAD v1.1 build0 Arch module
# https://www.freecad.org
mtllib FlexureStiffener.mtl
o FlexureStiffener
usemtl color_dfdfdf
v -0.669696 -20.0 1.616789
v -1.543566 -20.0 0.742919
v -1.543566 20.0 -0.742919
v -1.552575 20.0 -0.733425
v -1.576457 20.0 -0.702302
v -1.569043 20.0 -0.713089
v -1.583296 20.0 -0.691143
v -1.595176 20.0 -0.667827
v -1.589541 20.0 -0.67964
v -1.604553 20.0 -0.643397
v -1.613711 20.0 -0.605251
v -1.611326 20.0 0.618121
v -1.613711 20.0 0.605251
v -1.604553 20.0 0.643397
v -1.608271 20.0 0.630847
v -1.600184 20.0 0.655735
v -1.595176 20.0 0.667827
v -1.583296 20.0 0.691143
v -1.589541 20.0 0.67964
v -1.576457 20.0 0.702302
v -1.552575 20.0 0.733425
v -1.543566 20.0 0.742919
v -1.616789 20.0 0.566143
v -0.3 20.0 -0.325
v 0.669696 20.0 -1.616789
v -0.669696 20.0 -1.616789
v 0.3 20.0 -0.325
v -0.3 20.0 0.325
v 1.569043 20.0 -0.713089
v 1.589541 20.0 -0.67964
v 1.583296 20.0 -0.691143
v -0.669696 20.0 1.616789
v 1.600184 20.0 -0.655735
v 1.611326 20.0 -0.618121
v 1.608271 20.0 -0.630847
v 1.616789 20.0 -0.566143
v 1.616789 20.0 0.566143
v 0.3 20.0 0.325
v 1.616447 20.0 0.579227
v 1.595176 20.0 0.667827
v 1.569043 20.0 0.713089
v 1.583296 20.0 0.691143
v 1.576457 20.0 0.702302
v 1.552575 20.0 0.733425
v 1.561076 20.0 0.723473
v 1.543566 20.0 0.742919
v -1.552575 -20.0 0.733425
v -1.561076 20.0 0.723473
v -1.561076 -20.0 0.723473
v -1.569043 -20.0 0.713089
v -1.569043 20.0 0.713089
v -1.576457 -20.0 0.702302
v -1.583296 -20.0 0.691143
v -1.589541 -20.0 0.67964
v -1.595176 -20.0 0.667827
v -1.608271 -20.0 0.630847
v -1.611326 -20.0 0.618121
v -1.61542 20.0 0.592275
v -1.616447 20.0 0.579227
v 0.669696 20.0 1.616789
v -1.543566 -20.0 -0.742919
v -1.561076 -20.0 -0.723473
v -1.569043 -20.0 -0.713089
v -1.589541 -20.0 -0.67964
v -1.608271 -20.0 -0.630847
v -1.604553 -20.0 -0.643397
v -1.61542 -20.0 -0.592275
v -1.616447 -20.0 -0.579227
v -1.61542 -20.0 0.592275
v -1.613711 -20.0 0.605251
v -1.616447 -20.0 0.579227
v -1.604553 -20.0 0.643397
v -1.600184 -20.0 0.655735
v -1.616789 -20.0 0.566143
v -0.3 -20.0 -0.325
v 0.669696 -20.0 -1.616789
v -0.669696 -20.0 -1.616789
v 0.3 -20.0 -0.325
v -0.3 -20.0 0.325
v 1.552575 -20.0 -0.733425
v 1.569043 -20.0 -0.713089
v 1.576457 -20.0 -0.702302
v 1.583296 -20.0 -0.691143
v 1.589541 -20.0 -0.67964
v 1.595176 -20.0 -0.667827
v 1.600184 -20.0 -0.655735
v 1.61542 -20.0 -0.592275
v 1.616789 -20.0 -0.566143
v 0.3 -20.0 0.325
v 1.616447 -20.0 0.579227
v 1.608271 -20.0 0.630847
v 1.604553 -20.0 0.643397
v 1.600184 -20.0 0.655735
v 1.595176 -20.0 0.667827
v 1.569043 -20.0 0.713089
v 1.583296 -20.0 0.691143
v 1.576457 -20.0 0.702302
v 1.561076 -20.0 0.723473
v 0.669696 -20.0 1.616789
v -1.616789 20.0 -0.566143
v -1.616789 -20.0 -0.566143
v 1.543566 -20.0 0.742919
v -1.616447 20.0 -0.579227
v -1.61542 20.0 -0.592275
v -1.613711 -20.0 -0.605251
v -1.611326 -20.0 -0.618121
v -1.611326 20.0 -0.618121
v -1.608271 20.0 -0.630847
v -1.600184 -20.0 -0.655735
v -1.600184 20.0 -0.655735
v -1.595176 -20.0 -0.667827
v -1.583296 -20.0 -0.691143
v -1.576457 -20.0 -0.702302
v -1.561076 20.0 -0.723473
v -1.552575 -20.0 -0.733425
v 1.616789 -20.0 0.566143
v 1.61542 -20.0 0.592275
v 1.61542 20.0 0.592275
v 1.613711 -20.0 0.605251
v 1.613711 20.0 0.605251
v 1.611326 -20.0 0.618121
v 1.611326 20.0 0.618121
v 1.608271 20.0 0.630847
v 1.604553 20.0 0.643397
v 1.600184 20.0 0.655735
v 1.589541 -20.0 0.67964
v 1.589541 20.0 0.67964
v 1.552575 -20.0 0.733425
v 1.543566 20.0 -0.742919
v 1.552575 20.0 -0.733425
v 1.543566 -20.0 -0.742919
v 1.561076 -20.0 -0.723473
v 1.561076 20.0 -0.723473
v 1.576457 20.0 -0.702302
v 1.595176 20.0 -0.667827
v 1.604553 -20.0 -0.643397
v 1.604553 20.0 -0.643397
v 1.608271 -20.0 -0.630847
v 1.611326 -20.0 -0.618121
v 1.613711 -20.0 -0.605251
v 1.613711 20.0 -0.605251
v 1.61542 20.0 -0.592275
v 1.616447 -20.0 -0.579227
v 1.616447 20.0 -0.579227
vn -0.707107 0.0 0.707107
vn -0.707107 0.0 0.707107
vn 0.0 1.0 0.0
vn 0.0 1.0 0.0
vn 0.0 1.0 0.0
vn 0.0 1.0 0.0
vn 0.0 1.0 0.0
vn 0.0 1.0 0.0
vn 0.0 1.0 0.0
vn 0.0 1.0 0.0
vn 0.0 1.0 0.0
vn 0.0 1.0 0.0
vn 0.0 1.0 0.0
vn 0.0 1.0 0.0
vn 0.0 1.0 0.0
vn 0.0 1.0 0.0
vn 0.0 1.0 0.0
vn 0.0 1.0 0.0
vn 0.0 1.0 0.0
vn 0.0 1.0 0.0
vn 0.0 1.0 0.0
vn 0.0 1.0 0.0
vn 0.0 1.0 0.0
vn 0.0 1.0 0.0
vn 0.0 1.0 0.0
vn 0.0 1.0 0.0
vn 0.0 1.0 0.0
vn 0.0 1.0 0.0
vn 0.0 1.0 0.0
vn 0.0 1.0 0.0
vn 0.0 1.0 0.0
vn 0.0 1.0 0.0
vn 0.0 1.0 0.0
vn 0.0 1.0 0.0
vn 0.0 1.0 0.0
vn 0.0 1.0 0.0
vn 0.0 1.0 0.0
vn 0.0 1.0 0.0
vn 0.0 1.0 0.0
vn 0.0 1.0 0.0
vn 0.0 1.0 0.0
vn 0.0 1.0 0.0
vn 0.0 1.0 0.0
vn 0.0 1.0 0.0
vn 0.0 1.0 0.0
vn 0.0 1.0 0.0
vn 0.0 1.0 0.0
vn 0.0 1.0 0.0
vn 0.0 1.0 0.0
vn 0.0 1.0 0.0
vn 0.0 1.0 0.0
vn 0.0 1.0 0.0
vn 0.0 1.0 0.0
vn 0.0 1.0 0.0
vn 0.0 1.0 0.0
vn 0.0 1.0 0.0
vn 0.0 1.0 0.0
vn 0.0 1.0 0.0
vn 0.0 1.0 0.0
vn 0.0 1.0 0.0
vn 0.0 1.0 0.0
vn 0.0 1.0 0.0
vn 0.0 1.0 0.0
vn 0.0 1.0 0.0
vn 0.0 1.0 0.0
vn 0.0 1.0 0.0
vn 0.0 1.0 0.0
vn 0.0 1.0 0.0
vn 0.0 1.0 0.0
vn 0.0 1.0 0.0
vn 0.0 1.0 0.0
vn 0.0 1.0 0.0
vn 0.0 1.0 0.0
vn 0.0 1.0 0.0
vn -0.725376 0.0 0.688353
vn -0.760404 0.0 0.649451
vn -0.725376 0.0 0.688353
vn -0.760404 0.0 0.649451
vn -0.793355 0.0 0.608759
vn -0.793355 0.0 0.608759
vn -0.824126 0.0 0.566407
vn -0.852637 0.0 0.522503
vn -0.824126 0.0 0.566407
vn -0.878818 0.0 0.477157
vn -0.852637 0.0 0.522503
vn -0.878818 0.0 0.477157
vn -0.902587 0.0 0.430507
vn -0.902587 0.0 0.430507
vn -0.923878 0.0 0.382688
vn -0.923878 0.0 0.382688
vn -0.942642 0.0 0.333807
vn -0.95882 0.0 0.284014
vn -0.942642 0.0 0.333807
vn -0.95882 0.0 0.284014
vn -0.97237 0.0 0.233446
vn -0.97237 0.0 0.233446
vn -0.983255 0.0 0.182232
vn -0.983255 0.0 0.182232
vn -0.991445 0.0 0.130526
vn -0.991445 0.0 0.130526
vn -0.996917 0.0 0.078465
vn -0.996917 0.0 0.078465
vn -0.999657 0.0 0.026176
vn -0.999657 0.0 0.026176
vn 0.0 0.0 1.0
vn 0.0 0.0 1.0
vn 0.0 -1.0 0.0
vn 0.0 -1.0 0.0
vn 0.0 -1.0 0.0
vn 0.0 -1.0 0.0
vn 0.0 -1.0 0.0
vn 0.0 -1.0 0.0
vn 0.0 -1.0 0.0
vn 0.0 -1.0 0.0
vn 0.0 -1.0 0.0
vn 0.0 -1.0 0.0
vn 0.0 -1.0 0.0
vn 0.0 -1.0 0.0
vn 0.0 -1.0 0.0
vn 0.0 -1.0 0.0
vn 0.0 -1.0 0.0
vn 0.0 -1.0 0.0
vn 0.0 -1.0 0.0
vn 0.0 -1.0 0.0
vn 0.0 -1.0 0.0
vn 0.0 -1.0 0.0
vn 0.0 -1.0 0.0
vn 0.0 -1.0 0.0
vn 0.0 -1.0 0.0
vn 0.0 -1.0 0.0
vn 0.0 -1.0 0.0
vn 0.0 -1.0 0.0
vn 0.0 -1.0 0.0
vn 0.0 -1.0 0.0
vn 0.0 -1.0 0.0
vn 0.0 -1.0 0.0
vn 0.0 -1.0 0.0
vn 0.0 -1.0 0.0
vn -0.0 -1.0 0.0
vn 0.0 -1.0 0.0
vn 0.0 -1.0 0.0
vn 0.0 -1.0 0.0
vn -0.0 -1.0 0.0
vn -0.0 -1.0 0.0
vn -0.0 -1.0 0.0
vn -0.0 -1.0 0.0
vn -0.0 -1.0 0.0
vn -0.0 -1.0 0.0
vn 0.0 -1.0 0.0
vn -0.0 -1.0 0.0
vn -0.0 -1.0 0.0
vn -0.0 -1.0 0.0
vn -0.0 -1.0 0.0
vn -0.0 -1.0 0.0
vn -0.0 -1.0 0.0
vn 0.0 -1.0 0.0
vn -0.0 -1.0 0.0
vn -0.0 -1.0 0.0
vn 0.0 -1.0 0.0
vn 0.0 -1.0 0.0
vn -0.0 -1.0 -0.0
vn -0.0 -1.0 -0.0
vn -0.0 -1.0 -0.0
vn -0.0 -1.0 -0.0
vn -0.0 -1.0 -0.0
vn -0.0 -1.0 -0.0
vn -0.0 -1.0 -0.0
vn -0.0 -1.0 -0.0
vn -0.0 -1.0 -0.0
vn -0.0 -1.0 -0.0
vn -0.0 -1.0 -0.0
vn -0.0 -1.0 -0.0
vn 0.0 -1.0 0.0
vn 0.0 -1.0 0.0
vn -0.0 -1.0 -0.0
vn -0.0 -1.0 -0.0
vn 0.0 -1.0 0.0
vn -0.0 -1.0 0.0
vn -1.0 -0.0 -0.0
vn -1.0 0.0 0.0
vn 0.707107 0.0 0.707107
vn 0.707107 0.0 0.707107
vn -0.999657 0.0 -0.026176
vn -0.996917 0.0 -0.078465
vn -0.999657 0.0 -0.026176
vn -0.996917 0.0 -0.078465
vn -0.991445 0.0 -0.130526
vn -0.991445 0.0 -0.130526
vn -0.983255 0.0 -0.182232
vn -0.97237 0.0 -0.233446
vn -0.983255 0.0 -0.182232
vn -0.95882 0.0 -0.284014
vn -0.97237 0.0 -0.233446
vn -0.95882 0.0 -0.284014
vn -0.942642 0.0 -0.333807
vn -0.942642 0.0 -0.333807
vn -0.923878 0.0 -0.382688
vn -0.923878 0.0 -0.382688
vn -0.902587 0.0 -0.430507
vn -0.878818 0.0 -0.477157
vn -0.902587 0.0 -0.430507
vn -0.878818 0.0 -0.477157
vn -0.852637 0.0 -0.522503
vn -0.852637 0.0 -0.522503
vn -0.824126 0.0 -0.566407
vn -0.824126 0.0 -0.566407
vn -0.793355 0.0 -0.608759
vn -0.793355 0.0 -0.608759
vn -0.760404 0.0 -0.649451
vn -0.760404 0.0 -0.649451
vn -0.725376 0.0 -0.688353
vn -0.725376 0.0 -0.688353
vn 0.999657 -0.0 0.026176
vn 0.999657 0.0 0.026176
vn 0.996917 -0.0 0.078465
vn 0.996917 0.0 0.078465
vn 0.991445 -0.0 0.130526
vn 0.991445 0.0 0.130526
vn 0.983255 -0.0 0.182232
vn 0.983255 0.0 0.182232
vn 0.97237 -0.0 0.233446
vn 0.95882 -0.0 0.284014
vn 0.97237 0.0 0.233446
vn 0.95882 -0.0 0.284014
vn 0.942642 -0.0 0.333807
vn 0.923878 -0.0 0.382688
vn 0.942642 0.0 0.333807
vn 0.923878 -0.0 0.382688
vn 0.902587 -0.0 0.430507
vn 0.902587 0.0 0.430507
vn 0.878818 -0.0 0.477157
vn 0.878818 0.0 0.477157
vn 0.852637 -0.0 0.522503
vn 0.824126 -0.0 0.566407
vn 0.852637 0.0 0.522503
vn 0.824126 -0.0 0.566407
vn 0.793355 -0.0 0.608759
vn 0.760404 -0.0 0.649451
vn 0.793355 0.0 0.608759
vn 0.760404 -0.0 0.649451
vn 0.725376 -0.0 0.688353
vn 0.725376 0.0 0.688353
vn -0.707107 -0.0 -0.707107
vn -0.707107 0.0 -0.707107
vn 1.0 0.0 -0.0
vn 1.0 0.0 0.0
vn 0.0 0.0 -1.0
vn 0.0 0.0 -1.0
vn 0.725376 0.0 -0.688353
vn 0.725376 0.0 -0.688353
vn 0.760404 0.0 -0.649451
vn 0.793355 0.0 -0.608759
vn 0.760404 0.0 -0.649451
vn 0.793355 0.0 -0.608759
vn 0.824126 0.0 -0.566407
vn 0.824126 0.0 -0.566407
vn 0.852637 0.0 -0.522503
vn 0.852637 0.0 -0.522503
vn 0.878818 0.0 -0.477157
vn 0.878818 0.0 -0.477157
vn 0.902587 0.0 -0.430507
vn 0.923878 0.0 -0.382688
vn 0.902587 0.0 -0.430507
vn 0.923878 0.0 -0.382688
vn 0.942642 0.0 -0.333807
vn 0.95882 0.0 -0.284014
vn 0.942642 0.0 -0.333807
vn 0.95882 0.0 -0.284014
vn 0.97237 0.0 -0.233446
vn 0.97237 0.0 -0.233446
vn 0.983255 0.0 -0.182232
vn 0.983255 0.0 -0.182232
vn 0.991445 0.0 -0.130526
vn 0.991445 0.0 -0.130526
vn 0.996917 0.0 -0.078465
vn 0.996917 0.0 -0.078465
vn 0.999657 0.0 -0.026176
vn 0.999657 0.0 -0.026176
vn 0.707107 0.0 -0.707107
vn 0.707107 0.0 -0.707107
vn 0.0 0.0 1.0
vn 0.0 0.0 1.0
vn -1.0 0.0 -0.0
vn -1.0 -0.0 0.0
vn 0.0 0.0 -1.0
vn 0.0 0.0 -1.0
vn 1.0 0.0 -0.0
vn 1.0 0.0 0.0
f 32//1 22//1 1//1 
f 1//2 22//2 2//2 
f 114//3 3//3 4//3 
f 5//4 114//4 6//4 
f 7//5 3//5 114//5 
f 7//6 114//6 5//6 
f 8//7 7//7 9//7 
f 108//8 110//8 10//8 
f 108//9 8//9 110//9 
f 103//10 11//10 104//10 
f 100//11 11//11 103//11 
f 100//12 107//12 11//12 
f 100//13 108//13 107//13 
f 100//14 3//14 7//14 
f 100//15 8//15 108//15 
f 100//16 7//16 8//16 
f 12//17 58//17 13//17 
f 14//18 58//18 12//18 
f 14//19 12//19 15//19 
f 14//20 59//20 58//20 
f 16//21 59//21 14//21 
f 17//22 59//22 16//22 
f 18//23 59//23 17//23 
f 18//24 17//24 19//24 
f 51//25 59//25 18//25 
f 51//26 18//26 20//26 
f 21//27 59//27 51//27 
f 21//28 51//28 48//28 
f 22//29 59//29 21//29 
f 22//30 23//30 59//30 
f 24//31 3//31 100//31 
f 24//32 25//32 26//32 
f 24//33 26//33 3//33 
f 24//34 100//34 23//34 
f 27//35 25//35 24//35 
f 28//36 23//36 22//36 
f 28//37 24//37 23//37 
f 129//38 25//38 27//38 
f 133//39 130//39 129//39 
f 29//40 133//40 129//40 
f 134//41 29//41 129//41 
f 30//42 31//42 134//42 
f 135//43 30//43 134//43 
f 135//44 134//44 129//44 
f 32//45 28//45 22//45 
f 137//46 33//46 135//46 
f 137//47 135//47 129//47 
f 34//48 35//48 137//48 
f 34//49 137//49 129//49 
f 144//50 142//50 141//50 
f 36//51 141//51 34//51 
f 36//52 129//52 27//52 
f 36//53 34//53 129//53 
f 36//54 144//54 141//54 
f 37//55 27//55 38//55 
f 37//56 36//56 27//56 
f 118//57 39//57 37//57 
f 122//58 120//58 118//58 
f 124//59 123//59 122//59 
f 124//60 122//60 118//60 
f 125//61 124//61 118//61 
f 40//62 118//62 37//62 
f 40//63 125//63 118//63 
f 41//64 40//64 37//64 
f 41//65 127//65 40//65 
f 41//66 42//66 127//66 
f 41//67 43//67 42//67 
f 44//68 41//68 37//68 
f 44//69 45//69 41//69 
f 46//70 44//70 37//70 
f 46//71 37//71 38//71 
f 60//72 46//72 38//72 
f 60//73 28//73 32//73 
f 60//74 38//74 28//74 
f 47//75 22//75 21//75 
f 47//76 21//76 48//76 
f 47//77 2//77 22//77 
f 49//78 47//78 48//78 
f 50//79 48//79 51//79 
f 50//80 49//80 48//80 
f 52//81 51//81 20//81 
f 52//82 20//82 18//82 
f 52//83 50//83 51//83 
f 53//84 18//84 19//84 
f 53//85 52//85 18//85 
f 54//86 53//86 19//86 
f 55//87 19//87 17//87 
f 55//88 54//88 19//88 
f 73//89 17//89 16//89 
f 73//90 55//90 17//90 
f 72//91 16//91 14//91 
f 72//92 14//92 15//92 
f 72//93 73//93 16//93 
f 56//94 72//94 15//94 
f 57//95 15//95 12//95 
f 57//96 56//96 15//96 
f 70//97 12//97 13//97 
f 70//98 57//98 12//98 
f 69//99 13//99 58//99 
f 69//100 70//100 13//100 
f 71//101 58//101 59//101 
f 71//102 69//102 58//102 
f 74//103 59//103 23//103 
f 74//104 71//104 59//104 
f 60//105 32//105 99//105 
f 99//106 32//106 1//106 
f 61//107 62//107 115//107 
f 61//108 63//108 62//108 
f 113//109 64//109 112//109 
f 64//110 109//110 111//110 
f 113//111 109//111 64//111 
f 109//112 65//112 66//112 
f 63//113 65//113 113//113 
f 113//114 65//114 109//114 
f 63//115 106//115 65//115 
f 63//116 105//116 106//116 
f 63//117 67//117 105//117 
f 63//118 101//118 67//118 
f 67//119 101//119 68//119 
f 61//120 101//120 63//120 
f 69//121 57//121 70//121 
f 71//122 57//122 69//122 
f 71//123 56//123 57//123 
f 71//124 72//124 56//124 
f 71//125 55//125 72//125 
f 72//126 55//126 73//126 
f 71//127 52//127 55//127 
f 54//128 52//128 53//128 
f 55//129 52//129 54//129 
f 71//130 49//130 52//130 
f 52//131 49//131 50//131 
f 71//132 47//132 49//132 
f 74//133 47//133 71//133 
f 74//134 2//134 47//134 
f 61//135 75//135 101//135 
f 76//136 75//136 77//136 
f 77//137 75//137 61//137 
f 76//138 78//138 75//138 
f 75//139 79//139 101//139 
f 74//140 79//140 2//140 
f 101//141 79//141 74//141 
f 76//142 131//142 78//142 
f 80//143 132//143 131//143 
f 81//144 82//144 132//144 
f 132//145 82//145 131//145 
f 83//146 84//146 82//146 
f 82//147 84//147 131//147 
f 85//148 86//148 84//148 
f 79//149 1//149 2//149 
f 86//150 136//150 84//150 
f 136//151 138//151 84//151 
f 84//152 139//152 131//152 
f 138//153 139//153 84//153 
f 140//154 87//154 139//154 
f 143//155 88//155 87//155 
f 131//156 88//156 78//156 
f 87//157 88//157 139//157 
f 139//158 88//158 131//158 
f 78//159 88//159 89//159 
f 88//160 116//160 89//160 
f 90//161 117//161 116//161 
f 119//162 121//162 117//162 
f 91//163 92//163 121//163 
f 117//164 92//164 116//164 
f 121//165 92//165 117//165 
f 92//166 93//166 116//166 
f 94//167 126//167 93//167 
f 93//168 95//168 116//168 
f 96//169 95//169 126//169 
f 97//170 95//170 96//170 
f 126//171 95//171 93//171 
f 98//172 128//172 95//172 
f 79//173 99//173 1//173 
f 89//174 99//174 79//174 
f 95//175 102//175 116//175 
f 128//176 102//176 95//176 
f 89//177 102//177 99//177 
f 116//178 102//178 89//178 
f 23//179 100//179 74//179 
f 74//180 100//180 101//180 
f 46//181 60//181 102//181 
f 102//182 60//182 99//182 
f 68//183 100//183 103//183 
f 68//184 103//184 104//184 
f 68//185 101//185 100//185 
f 67//186 68//186 104//186 
f 105//187 104//187 11//187 
f 105//188 67//188 104//188 
f 106//189 11//189 107//189 
f 106//190 107//190 108//190 
f 106//191 105//191 11//191 
f 65//192 108//192 10//192 
f 65//193 106//193 108//193 
f 66//194 65//194 10//194 
f 109//195 10//195 110//195 
f 109//196 66//196 10//196 
f 111//197 110//197 8//197 
f 111//198 109//198 110//198 
f 64//199 8//199 9//199 
f 64//200 9//200 7//200 
f 64//201 111//201 8//201 
f 112//202 64//202 7//202 
f 113//203 7//203 5//203 
f 113//204 112//204 7//204 
f 63//205 5//205 6//205 
f 63//206 113//206 5//206 
f 62//207 6//207 114//207 
f 62//208 63//208 6//208 
f 115//209 114//209 4//209 
f 115//210 62//210 114//210 
f 61//211 4//211 3//211 
f 61//212 115//212 4//212 
f 90//213 37//213 39//213 
f 90//214 116//214 37//214 
f 117//215 39//215 118//215 
f 117//216 90//216 39//216 
f 119//217 118//217 120//217 
f 119//218 117//218 118//218 
f 121//219 120//219 122//219 
f 121//220 119//220 120//220 
f 91//221 122//221 123//221 
f 91//222 123//222 124//222 
f 91//223 121//223 122//223 
f 92//224 91//224 124//224 
f 93//225 124//225 125//225 
f 93//226 125//226 40//226 
f 93//227 92//227 124//227 
f 94//228 93//228 40//228 
f 126//229 40//229 127//229 
f 126//230 94//230 40//230 
f 96//231 127//231 42//231 
f 96//232 126//232 127//232 
f 97//233 42//233 43//233 
f 97//234 43//234 41//234 
f 97//235 96//235 42//235 
f 95//236 97//236 41//236 
f 98//237 41//237 45//237 
f 98//238 45//238 44//238 
f 98//239 95//239 41//239 
f 128//240 98//240 44//240 
f 102//241 44//241 46//241 
f 102//242 128//242 44//242 
f 3//243 26//243 61//243 
f 61//244 26//244 77//244 
f 36//245 37//245 88//245 
f 88//246 37//246 116//246 
f 26//247 25//247 77//247 
f 77//248 25//248 76//248 
f 80//249 129//249 130//249 
f 80//250 131//250 129//250 
f 132//251 130//251 133//251 
f 132//252 133//252 29//252 
f 132//253 80//253 130//253 
f 81//254 132//254 29//254 
f 82//255 29//255 134//255 
f 82//256 81//256 29//256 
f 83//257 134//257 31//257 
f 83//258 82//258 134//258 
f 84//259 31//259 30//259 
f 84//260 83//260 31//260 
f 85//261 30//261 135//261 
f 85//262 135//262 33//262 
f 85//263 84//263 30//263 
f 86//264 85//264 33//264 
f 136//265 33//265 137//265 
f 136//266 137//266 35//266 
f 136//267 86//267 33//267 
f 138//268 136//268 35//268 
f 139//269 35//269 34//269 
f 139//270 138//270 35//270 
f 140//271 34//271 141//271 
f 140//272 139//272 34//272 
f 87//273 141//273 142//273 
f 87//274 140//274 141//274 
f 143//275 142//275 144//275 
f 143//276 87//276 142//276 
f 88//277 144//277 36//277 
f 88//278 143//278 144//278 
f 25//279 129//279 76//279 
f 76//280 129//280 131//280 
f 27//281 24//281 75//281 
f 27//282 75//282 78//282 
f 38//283 27//283 78//283 
f 38//284 78//284 89//284 
f 28//285 38//285 89//285 
f 28//286 89//286 79//286 
f 24//287 28//287 79//287 
f 24//288 79//288 75//288 
